<?xml version="1.0" encoding="UTF-8" standalone="no"?>
<svg width="249px" height="249px" viewBox="0 0 249 249" version="1.1" xmlns="http://www.w3.org/2000/svg" xmlns:xlink="http://www.w3.org/1999/xlink">
    <!-- Generator: Sketch 42 (36781) - http://www.bohemiancoding.com/sketch -->
    <title>F_icon</title>
    <desc>Created with Sketch.</desc>
    <defs></defs>
    <g id="Page-1" stroke="none" stroke-width="1" fill="none" fill-rule="evenodd">
        <g id="F_icon" transform="translate(-0.500000, -0.500000)" fill-rule="nonzero">
            <path d="M235.600386,249.331081 C243.181467,249.331081 249.329151,243.183398 249.329151,235.600386 L249.329151,14.2972973 C249.329151,6.71332046 243.182432,0.567567568 235.600386,0.567567568 L14.2972973,0.567567568 C6.71332046,0.567567568 0.567567568,6.71332046 0.567567568,14.2972973 L0.567567568,235.600386 C0.567567568,243.182432 6.71235521,249.331081 14.2972973,249.331081 L235.600386,249.331081 Z" id="Blue_1_" fill="#757575"></path>
            <path d="M172.209459,249.331081 L172.209459,152.996139 L204.544402,152.996139 L209.3861,115.452703 L172.209459,115.452703 L172.209459,91.4835907 C172.209459,80.6138996 175.227799,73.2065637 190.814672,73.2065637 L210.694981,73.1978764 L210.694981,39.6187259 C207.256757,39.1611969 195.455598,38.1389961 181.725869,38.1389961 C153.062741,38.1389961 133.439189,55.6351351 133.439189,87.765444 L133.439189,115.452703 L101.021236,115.452703 L101.021236,152.996139 L133.439189,152.996139 L133.439189,249.331081 L172.209459,249.331081 Z" id="f" fill="#FFFFFF"></path>
        </g>
    </g>
</svg>