<?xml version="1.0" encoding="UTF-8" standalone="no"?>
<svg width="249px" height="250px" viewBox="0 0 249 250" version="1.1" xmlns="http://www.w3.org/2000/svg" xmlns:xlink="http://www.w3.org/1999/xlink">
    <!-- Generator: Sketch 42 (36781) - http://www.bohemiancoding.com/sketch -->
    <title>Instagram_logo_2016</title>
    <desc>Created with Sketch.</desc>
    <defs></defs>
    <g id="Page-1" stroke="none" stroke-width="1" fill="none" fill-rule="evenodd">
        <g id="Instagram_logo_2016" transform="translate(0.500000, 0.954198)" fill-rule="nonzero">
            <path d="M124.110687,0 C72.3129771,0 57.1641221,0.0534351145 54.2194656,0.297709924 C43.5896947,1.18129771 36.9751908,2.85496183 29.769084,6.44274809 C24.2156489,9.20038168 19.8358779,12.3969466 15.5133588,16.8778626 C7.64122137,25.0496183 2.87022901,35.1030534 1.14312977,47.0534351 C0.303435115,52.8549618 0.0591603053,54.0381679 0.00954198473,83.6717557 C-0.00954198473,93.5496183 0.00954198473,106.549618 0.00954198473,123.986641 C0.00954198473,175.742366 0.0667938931,190.875954 0.314885496,193.814885 C1.17366412,204.158397 2.79580153,210.666031 6.23091603,217.784351 C12.7958015,231.410305 25.3339695,241.639313 40.1049618,245.456107 C45.2194656,246.772901 50.8683206,247.498092 58.120229,247.841603 C61.1927481,247.975191 92.509542,248.070611 123.84542,248.070611 C155.181298,248.070611 186.517176,248.032443 189.513359,247.879771 C197.910305,247.484733 202.78626,246.830153 208.177481,245.437023 C223.043893,241.601145 235.353053,231.524809 242.051527,217.708015 C245.419847,210.76145 247.127863,204.005725 247.900763,194.20229 C248.068702,192.064885 248.139313,157.986641 248.139313,123.954198 C248.139313,89.9160305 248.062977,55.9007634 247.895038,53.7633588 C247.112595,43.8015267 245.40458,37.1030534 241.927481,30.0229008 C239.074427,24.2270992 235.906489,19.898855 231.307252,15.4732824 C223.099237,7.63358779 213.061069,2.86259542 201.099237,1.13740458 C195.303435,0.299618321 194.148855,0.0515267176 164.492366,0 L124.110687,0 Z" id="Shape" fill="#757575"></path>
            <path d="M124.053435,32.4427481 C99.1755725,32.4427481 96.0534351,32.5515267 86.2824427,32.9961832 C76.5305344,33.4427481 69.8740458,34.9866412 64.0496183,37.2519084 C58.0248092,39.5916031 52.9141221,42.721374 47.8225191,47.8148855 C42.7270992,52.9064885 39.5973282,58.0171756 37.25,64.0400763 C34.9790076,69.8664122 33.4332061,76.5248092 32.9942748,86.2729008 C32.5572519,96.0438931 32.4427481,99.1679389 32.4427481,124.045802 C32.4427481,148.923664 32.5534351,152.03626 32.9961832,161.807252 C33.4446565,171.55916 34.9885496,178.215649 37.2519084,184.040076 C39.5935115,190.064885 42.7232824,195.175573 47.8167939,200.267176 C52.9064885,205.362595 58.0171756,208.5 64.0381679,210.839695 C69.8664122,213.104962 76.5248092,214.648855 86.2748092,215.09542 C96.0458015,215.540076 99.1660305,215.648855 124.041985,215.648855 C148.921756,215.648855 152.034351,215.540076 161.805344,215.09542 C171.557252,214.648855 178.221374,213.104962 184.049618,210.839695 C190.072519,208.5 195.175573,205.362595 200.265267,200.267176 C205.360687,195.175573 208.490458,190.064885 210.837786,184.041985 C213.089695,178.215649 214.635496,171.557252 215.093511,161.80916 C215.532443,152.038168 215.646947,148.923664 215.646947,124.045802 C215.646947,99.1679389 215.532443,96.0458015 215.093511,86.2748092 C214.635496,76.5229008 213.089695,69.8664122 210.837786,64.0419847 C208.490458,58.0171756 205.360687,52.9064885 200.265267,47.8148855 C195.169847,42.7194656 190.074427,39.5896947 184.043893,37.2519084 C178.204198,34.9866412 171.543893,33.4427481 161.791985,32.9961832 C152.020992,32.5515267 148.910305,32.4427481 124.024809,32.4427481 L124.053435,32.4427481 Z M115.835878,48.9503817 C118.274809,48.9465649 120.996183,48.9503817 124.053435,48.9503817 C148.51145,48.9503817 151.410305,49.0381679 161.068702,49.4770992 C170,49.8854962 174.847328,51.3778626 178.076336,52.6316794 C182.351145,54.2919847 185.398855,56.2767176 188.603053,59.4828244 C191.80916,62.6889313 193.793893,65.7423664 195.458015,70.0171756 C196.711832,73.2423664 198.206107,78.0896947 198.612595,87.0209924 C199.051527,96.6774809 199.146947,99.5782443 199.146947,124.024809 C199.146947,148.471374 199.051527,151.372137 198.612595,161.028626 C198.204198,169.959924 196.711832,174.807252 195.458015,178.032443 C193.79771,182.307252 191.80916,185.351145 188.603053,188.555344 C185.396947,191.76145 182.353053,193.746183 178.076336,195.406489 C174.851145,196.666031 170,198.15458 161.068702,198.562977 C151.412214,199.001908 148.51145,199.097328 124.053435,199.097328 C99.5935115,199.097328 96.6946565,199.001908 87.0381679,198.562977 C78.1068702,198.150763 73.259542,196.658397 70.028626,195.40458 C65.7538168,193.744275 62.7003817,191.759542 59.4942748,188.553435 C56.2881679,185.347328 54.3034351,182.301527 52.639313,178.024809 C51.3854962,174.799618 49.8912214,169.95229 49.4847328,161.020992 C49.0458015,151.364504 48.9580153,148.46374 48.9580153,124.001908 C48.9580153,99.5400763 49.0458015,96.6545802 49.4847328,86.9980916 C49.8931298,78.0667939 51.3854962,73.2194656 52.639313,69.990458 C54.2996183,65.7156489 56.2881679,62.6622137 59.4942748,59.4561069 C62.7003817,56.25 65.7538168,54.2652672 70.028626,52.601145 C73.2576336,51.3416031 78.1068702,49.8530534 87.0381679,49.4427481 C95.4885496,49.0610687 98.7633588,48.9465649 115.835878,48.9274809 L115.835878,48.9503817 Z M172.950382,64.1603053 C166.881679,64.1603053 161.958015,69.0782443 161.958015,75.148855 C161.958015,81.2175573 166.881679,86.1412214 172.950382,86.1412214 C179.019084,86.1412214 183.942748,81.2175573 183.942748,75.148855 C183.942748,69.0801527 179.019084,64.1564885 172.950382,64.1564885 L172.950382,64.1603053 Z M124.053435,77.0038168 C98.0744275,77.0038168 77.0114504,98.0667939 77.0114504,124.045802 C77.0114504,150.024809 98.0744275,171.078244 124.053435,171.078244 C150.032443,171.078244 171.087786,150.024809 171.087786,124.045802 C171.087786,98.0667939 150.030534,77.0038168 124.051527,77.0038168 L124.053435,77.0038168 Z M124.053435,93.5114504 C140.916031,93.5114504 154.587786,107.181298 154.587786,124.045802 C154.587786,140.908397 140.916031,154.580153 124.053435,154.580153 C107.188931,154.580153 93.519084,140.908397 93.519084,124.045802 C93.519084,107.181298 107.188931,93.5114504 124.053435,93.5114504 L124.053435,93.5114504 Z" id="Shape" fill="#FFFFFF"></path>
        </g>
    </g>
</svg>