<?xml version="1.0" encoding="UTF-8" standalone="no"?>
<svg width="250px" height="250px" viewBox="0 0 250 250" version="1.1" xmlns="http://www.w3.org/2000/svg" xmlns:xlink="http://www.w3.org/1999/xlink">
    <!-- Generator: Sketch 42 (36781) - http://www.bohemiancoding.com/sketch -->
    <title>Shape</title>
    <desc>Created with Sketch.</desc>
    <defs></defs>
    <g id="Page-1" stroke="none" stroke-width="1" fill="none" fill-rule="evenodd">
        <path d="M197.916667,0 L52.0833333,0 C23.3229167,0 0,23.3229167 0,52.0833333 L0,197.916667 C0,226.677083 23.3229167,250 52.0833333,250 L197.916667,250 C226.6875,250 250,226.677083 250,197.916667 L250,52.0833333 C250,23.3229167 226.6875,0 197.916667,0 Z M186.03125,178.28125 C185.354167,179.1875 184.8125,183.041667 183.916667,186.083333 C182.895833,189.59375 179.677083,189.197917 176.104167,188.5 C170.90625,187.489583 166.260417,187.197917 160.854167,188.09375 C151.5,189.645833 141.791667,203.479167 125.510417,203.479167 C107.989583,203.479167 98.875,189.71875 89.15625,188.09375 C79.25,186.447917 73.5625,189.09375 70.1354167,189.09375 C67.5104167,189.09375 66.4895833,187.489583 66.09375,186.15625 C65.21875,183.166667 64.65625,179.239583 63.96875,178.302083 C57.2395833,177.260417 42.0625,174.614583 41.6666667,167.833333 C41.5729167,166.072917 42.8125,164.520833 44.5520833,164.229167 C66.8333333,160.5625 81.0208333,135.427083 78.7083333,129.989583 C77.0625,126.114583 69.9583333,124.729167 66.96875,123.541667 C59.2604167,120.489583 58.1875,116.979167 58.6458333,114.583333 C59.28125,111.25 63.34375,109.010417 66.75,109.010417 C70.0208333,109.010417 75.8020833,113.385417 80.3020833,110.895833 C79.625,99.1979167 77.9791667,82.4791667 82.1458333,73.1458333 C90.09375,55.3333333 107.5,46.53125 124.90625,46.53125 C142.4375,46.53125 159.96875,55.46875 167.854167,73.1354167 C172.010417,82.4583333 170.375,99.1041667 169.708333,110.895833 C173.958333,113.239583 179.21875,108.90625 182.885417,108.90625 C186.479167,108.90625 191.364583,111.333333 191.447917,115.395833 C191.510417,118.572917 188.677083,121.3125 183.020833,123.541667 C179.979167,124.739583 172.927083,126.125 171.28125,129.989583 C168.916667,135.5625 183.541667,160.625 205.4375,164.229167 C207.177083,164.510417 208.427083,166.0625 208.322917,167.833333 C207.947917,174.604167 192.697917,177.239583 186.03125,178.28125 L186.03125,178.28125 Z" id="Shape" fill="#757575" fill-rule="nonzero"></path>
    </g>
</svg>